<?xml version="1.0" encoding="utf-8"?><svg version="1.1" id="Layer_1" xmlns="http://www.w3.org/2000/svg" xmlns:xlink="http://www.w3.org/1999/xlink" x="0px" y="0px" width="96.164px" height="122.88px" viewBox="0 0 96.164 122.88" enable-background="new 0 0 96.164 122.88" xml:space="preserve"><g><path d="M62.74,110.303l21.48-22.574H62.74V110.303L62.74,110.303z M56.164,32.356c0.514,0,0.975,0.206,1.311,0.54 c0.334,0.333,0.539,0.791,0.549,1.305v0.016c0,0.508-0.205,0.971-0.545,1.31c-0.328,0.329-0.791,0.539-1.299,0.544 c-5.393,0.005-10.786,0.005-16.179,0.005c-0.508,0-0.976-0.211-1.31-0.545c-0.334-0.333-0.54-0.796-0.544-1.304v-0.011 c-0.005-0.514,0.206-0.976,0.539-1.315c0.329-0.329,0.792-0.539,1.305-0.544C45.382,32.351,50.771,32.351,56.164,32.356 L56.164,32.356z M48.083,14.313c1.294,0,2.57,0.128,3.796,0.37c1.264,0.252,2.482,0.627,3.648,1.104 c1.191,0.494,2.322,1.1,3.375,1.809c1.063,0.708,2.055,1.521,2.953,2.425c0.904,0.899,1.717,1.891,2.426,2.954 c0.703,1.053,1.311,2.184,1.803,3.37c0.482,1.167,0.857,2.389,1.105,3.648c0.246,1.233,0.375,2.502,0.375,3.802 c0,1.295-0.129,2.569-0.375,3.796c-0.248,1.264-0.623,2.487-1.105,3.648l-0.006,0.016c-0.492,1.182-1.094,2.307-1.793,3.354 c-0.713,1.069-1.529,2.06-2.43,2.959c-0.898,0.899-1.891,1.711-2.953,2.426c-1.053,0.703-2.184,1.31-3.375,1.803l-0.012,0.005 c-1.16,0.478-2.379,0.853-3.637,1.1c-1.227,0.247-2.502,0.375-3.796,0.375c-1.3,0-2.569-0.128-3.802-0.375 c-1.259-0.247-2.477-0.622-3.643-1.105c-1.192-0.493-2.322-1.1-3.375-1.803c-1.063-0.714-2.055-1.526-2.954-2.426 c-0.899-0.899-1.716-1.89-2.43-2.959c-0.699-1.053-1.305-2.183-1.798-3.37c-0.483-1.161-0.858-2.384-1.104-3.648 c-0.247-1.228-0.375-2.501-0.375-3.796c0-1.3,0.129-2.569,0.375-3.802c0.247-1.259,0.621-2.481,1.104-3.648 c0.493-1.187,1.1-2.317,1.803-3.37c0.709-1.063,1.521-2.055,2.426-2.954c0.898-0.904,1.89-1.716,2.954-2.425 c1.053-0.709,2.183-1.315,3.375-1.809l0.01-0.005c1.161-0.478,2.378-0.848,3.637-1.1C45.513,14.441,46.783,14.313,48.083,14.313 L48.083,14.313z M58.855,23.021c-0.703-0.708-1.484-1.346-2.316-1.901c-0.822-0.555-1.705-1.028-2.625-1.408 c-0.904-0.375-1.861-0.668-2.852-0.863c-0.961-0.185-1.957-0.288-2.98-0.288c-1.022,0-2.02,0.103-2.985,0.288 c-0.986,0.195-1.942,0.489-2.847,0.863c-0.919,0.38-1.803,0.853-2.625,1.408c-0.833,0.555-1.613,1.192-2.317,1.901 c-0.704,0.704-1.346,1.485-1.901,2.317C34.853,26.16,34.38,27.043,34,27.963c-0.375,0.904-0.663,1.86-0.863,2.851 c-0.185,0.961-0.288,1.958-0.288,2.98c0,1.017,0.103,2.014,0.288,2.975c0.2,0.992,0.488,1.947,0.863,2.852 c0.38,0.925,0.853,1.803,1.407,2.625c0.555,0.837,1.197,1.613,1.901,2.317c0.704,0.709,1.484,1.346,2.317,1.906 c0.822,0.55,1.706,1.022,2.625,1.402c0.904,0.375,1.86,0.668,2.847,0.863c0.965,0.19,1.962,0.288,2.985,0.288 c1.023,0,2.019-0.097,2.984-0.288c0.986-0.195,1.943-0.488,2.848-0.863l0.01-0.005c0.92-0.38,1.793-0.847,2.615-1.397 c0.832-0.56,1.613-1.197,2.316-1.906c0.705-0.704,1.346-1.479,1.902-2.317c0.555-0.822,1.027-1.701,1.406-2.625 c0.375-0.904,0.664-1.86,0.863-2.852c0.186-0.96,0.287-1.958,0.287-2.975c0-1.022-0.102-2.019-0.287-2.98 c-0.199-0.991-0.488-1.947-0.863-2.851c-0.379-0.92-0.852-1.803-1.406-2.625C60.201,24.506,59.561,23.725,58.855,23.021 L58.855,23.021z M18.932,90.025h19.23v5.533h-19.23V90.025L18.932,90.025z M18.932,75.984h27.292v5.527H18.932V75.984 L18.932,75.984z M18.932,61.943h58.301v5.528H18.932V61.943L18.932,61.943z M96.164,84.847c0,1.628-1.1,3.041-2.6,3.447 L61.928,121.56c-0.662,0.816-1.664,1.32-2.764,1.32H6.427c-1.788,0-3.386-0.725-4.547-1.88C0.719,119.838,0,118.235,0,116.453 V6.427C0,4.639,0.719,3.041,1.88,1.88C3.042,0.719,4.67,0,6.427,0h83.311c1.756,0,3.385,0.719,4.547,1.88 c1.16,1.161,1.879,2.759,1.879,4.547V84.847L96.164,84.847z M88.982,80.552V7.182h-81.8v108.547h48.38v-31.57 c0-1.979,1.598-3.606,3.602-3.606H88.982L88.982,80.552z"/></g></svg>